<svg width="128" height="111" viewBox="0 0 128 111" fill="none" xmlns="http://www.w3.org/2000/svg">
<circle cx="59.5" cy="52.5" r="9.5" fill="#70D767" stroke="#F9FCF8" stroke-width="2"/>
<circle cx="57.5" cy="64.5" r="5.5" fill="#70D767" stroke="#F9FCF8" stroke-width="2"/>
<path d="M72 54C72 56.7614 69.7614 59 67 59C64.2386 59 62 56.7614 62 54C62 51.2386 64.2386 49 67 49C69.7614 49 72 51.2386 72 54Z" fill="#70D767" stroke="#F9FCF8" stroke-width="2"/>
<circle cx="77" cy="61" r="8" fill="#70D767" stroke="#F9FCF8" stroke-width="2"/>
<path d="M66.7961 83V67.9582M66.7961 67.9582L64.4619 64.6678M66.7961 67.9582L70.5307 64.6678M58 51L63.1652 57.6169M78 57.6169L70.5307 64.6678M63.1652 57.6169L65.5676 54.7966M63.1652 57.6169L64.4619 64.6678M64.4619 64.6678L59.3268 65.1379M70.5307 64.6678L76.1327 65.1379" stroke="#348E2B" stroke-width="3.5" stroke-linecap="round"/>
<path d="M39.2082 68.1985L28.8298 68.7482L26.9502 69.2283L25.7932 68.89L25.6235 65.265L32.6592 61.1632L32.6414 60.7836L25.2876 58.0909L25.1108 54.314L26.2403 54.0639L28.0707 54.1572L38.525 53.6034L38.6858 57.0387L37.0704 57.0672L31.7768 57.3476L31.7866 57.5563L33.6436 58.219L36.9111 59.7583L37.0177 62.0358L32.1313 64.9203L32.1402 65.1101L33.6771 65.0287L39.0377 64.5544L39.2082 68.1985Z" fill="url(#paint0_linear_14_60)"/>
<path d="M41.2968 45.9539C40.8948 46.8425 40.4038 47.5743 39.8239 48.1493C39.244 48.7243 38.5523 49.0701 37.7488 49.1868C36.9453 49.3034 36.0103 49.1269 34.9438 48.6572C34.1788 48.3202 33.5813 47.9048 33.1513 47.4109C32.7266 46.9055 32.4453 46.3595 32.3076 45.7729C32.1582 45.1812 32.1309 44.581 32.2256 43.9722C32.3087 43.3583 32.4808 42.7629 32.7419 42.1859C33.1909 41.1934 33.634 40.4751 34.0713 40.0311C34.5138 39.5755 34.8321 39.2866 35.0264 39.1646L38.1827 39.5167L39.1041 40.3378L36.6762 45.7041C37.1416 45.8122 37.5976 45.757 38.044 45.5384C38.4905 45.3199 38.8938 44.8124 39.2541 44.0161C39.536 43.393 39.7093 42.8257 39.7738 42.3143C39.8383 41.803 39.8759 41.3974 39.8864 41.0976L42.2164 42.1238C42.2453 42.5517 42.1804 43.1252 42.0219 43.8443C41.857 44.5467 41.6153 45.2499 41.2968 45.9539ZM35.5712 45.1966L36.3042 42.6546L35.486 42.4811C35.4031 42.5414 35.3135 42.6473 35.2172 42.7986C35.1262 42.9385 35.0545 43.0661 35.0023 43.1815C34.8561 43.5046 34.803 43.8064 34.8429 44.087C34.888 44.356 34.983 44.5916 35.1278 44.7938C35.2663 44.9793 35.4141 45.1136 35.5712 45.1966Z" fill="url(#paint1_linear_14_60)"/>
<path d="M45.9264 39.4705L41.9902 35.0126L40.4318 33.8505L39.978 32.7338L41.9259 31.0359L42.5016 31.1137C42.5016 31.1137 42.5349 31.0175 42.6015 30.825C42.6597 30.623 42.7746 30.38 42.9463 30.096C43.1275 29.8036 43.3804 29.516 43.705 29.233C43.896 29.0665 44.0995 28.9143 44.3156 28.7763C44.5318 28.6383 44.7133 28.5473 44.8602 28.5032L46.4829 28.4751L47.1616 31.1096L44.5794 31.9742L44.2755 32.4912L48.4758 37.2482L45.9264 39.4705Z" fill="url(#paint2_linear_14_60)"/>
<path d="M55.2638 33.1097C54.4449 33.4152 53.6523 33.5553 52.886 33.5302C52.1316 33.5007 51.4392 33.2385 50.8088 32.7436C50.1903 32.2443 49.6776 31.4486 49.2709 30.3565C48.8597 29.2526 48.7446 28.3086 48.9257 27.5246C49.1023 26.7287 49.4721 26.0703 50.035 25.5493C50.5979 25.0284 51.2532 24.6285 52.0009 24.3496C52.6536 24.1062 53.2203 23.9218 53.7008 23.7967C54.1932 23.6671 54.5232 23.5913 54.6907 23.5694L56.6629 24.6183L55.9616 27.0903L53.4634 26.6431C52.4428 27.0238 52.1668 27.8433 52.6354 29.1015C52.8786 29.7544 53.212 30.1776 53.6355 30.3711C54.0546 30.5527 54.5845 30.524 55.2254 30.285C55.8663 30.0459 56.4087 29.7422 56.8527 29.3738C57.2967 29.0054 57.6324 28.6909 57.8598 28.4304L58.8147 30.9943C58.5176 31.3215 58.0929 31.6691 57.5407 32.0373C56.9959 32.3893 56.237 32.7467 55.2638 33.1097Z" fill="url(#paint3_linear_14_60)"/>
<path d="M65.5301 30.5253C64.9869 30.4861 64.4876 30.3739 64.0323 30.1887C63.5907 29.9917 63.2466 29.6875 63 29.276C62.7535 28.8646 62.6581 28.3116 62.7138 27.6172C62.7644 26.9859 62.9644 26.4733 63.3137 26.0794C63.6629 25.6855 64.1173 25.4072 64.6768 25.2444C65.2362 25.0816 65.8571 25.0248 66.5393 25.074C67.1963 25.1214 67.6829 25.2327 67.9992 25.4079C68.3166 25.5705 68.5892 25.7362 68.8171 25.9051L68.9588 25.801C68.9892 25.4222 68.983 25.1043 68.94 24.8472C68.8971 24.5901 68.767 24.3903 68.5498 24.2476C68.3335 24.0923 67.9853 23.9973 67.5052 23.9627C67.0378 23.929 66.5352 23.9371 65.9975 23.9872C65.4734 24.0256 64.9852 24.092 64.5329 24.1863C64.0943 24.269 63.763 24.3593 63.5391 24.4575L63.767 21.6166C64.1698 21.506 64.7358 21.4198 65.4651 21.3582C66.208 21.2848 67.11 21.2864 68.1713 21.363C69.3083 21.445 70.1937 21.6549 70.8273 21.9928C71.4746 22.3188 71.9218 22.7638 72.1688 23.3277C72.4168 23.879 72.511 24.5271 72.4512 25.272L72.2491 27.7909L72.4747 29.7311L72.006 30.8212L68.7654 30.5874L68.8399 29.6593L68.658 29.551C68.5488 29.6447 68.3603 29.7771 68.0924 29.9483C67.8245 30.1194 67.4755 30.272 67.0455 30.4061C66.6164 30.5275 66.1113 30.5673 65.5301 30.5253ZM67.34 28.1605C67.6811 28.1852 67.9742 28.1746 68.2193 28.1288C68.4771 28.0839 68.6648 28.0403 68.7826 27.998L68.8114 27.6381C68.8246 27.474 68.7172 27.3075 68.4894 27.1387C68.2741 26.9707 67.9201 26.869 67.4274 26.8334C66.7452 26.7842 66.3848 26.9995 66.3463 27.4793C66.3301 27.6813 66.3938 27.8383 66.5373 27.9502C66.6808 28.0622 66.9483 28.1323 67.34 28.1605Z" fill="url(#paint4_linear_14_60)"/>
<path d="M77.139 32.4197C76.6225 32.1236 76.1994 31.7059 75.8697 31.1664C75.551 30.6333 75.4044 29.9945 75.4299 29.2499C75.4554 28.5053 75.7373 27.6741 76.2755 26.7563C76.8714 25.7402 77.4972 25.0112 78.1527 24.5694C78.8192 24.1339 79.4743 23.9182 80.118 23.9223C80.7682 23.9154 81.3515 24.06 81.8679 24.356C82.6482 24.8033 83.1592 25.1839 83.4009 25.4977C83.6537 25.8178 83.7801 25.9778 83.7801 25.9778L85.4319 22.7857L86.1734 21.8968L89.1569 23.6072L83.8994 32.5723L83.2679 34.4003L82.3519 35.211L79.5332 33.5951L80.0042 32.7921L79.8874 32.6156C79.8874 32.6156 79.7537 32.6558 79.4864 32.7361C79.2254 32.8055 78.8843 32.8363 78.4631 32.8284C78.0419 32.8205 77.6006 32.6843 77.139 32.4197ZM79.7305 30.8175L80.7717 31.1078L82.175 28.7149C82.3223 28.4636 82.3553 28.2197 82.2737 27.9831C82.1986 27.7357 82.0237 27.5332 81.749 27.3757C81.3424 27.1426 80.9546 27.1028 80.5856 27.2562C80.223 27.3988 79.8623 27.776 79.5035 28.3879C79.1511 28.9888 79.0156 29.4952 79.0972 29.9069C79.1788 30.3187 79.3899 30.6222 79.7305 30.8175Z" fill="url(#paint5_linear_14_60)"/>
<path d="M88.963 41.1615C88.3635 40.3922 87.9454 39.6187 87.7087 38.841C87.4721 38.0633 87.492 37.2955 87.7684 36.5375C88.0449 35.7794 88.6441 35.044 89.566 34.3313C90.2275 33.82 90.8793 33.4922 91.5216 33.3479C92.1717 33.2136 92.79 33.224 93.3765 33.379C93.973 33.5262 94.5193 33.7843 95.0155 34.1532C95.5217 34.5143 95.9695 34.9447 96.3588 35.4443C97.0284 36.3035 97.457 37.0288 97.6448 37.6201C97.8404 38.2214 97.9465 38.6357 97.963 38.863L96.1568 41.46L94.9913 41.8807L91.3709 37.2348C91.0546 37.5914 90.888 38.0163 90.871 38.5098C90.8541 39.0032 91.1142 39.5946 91.6514 40.284C92.0718 40.8235 92.494 41.2416 92.9179 41.5383C93.3418 41.835 93.6845 42.0584 93.946 42.2085L91.9316 43.7656C91.5377 43.5899 91.0588 43.2637 90.4947 42.7871C89.9485 42.3128 89.4379 41.771 88.963 41.1615ZM92.3446 36.5061L94.2569 38.3419L94.7982 37.7073C94.7838 37.6064 94.7321 37.4782 94.6432 37.3228C94.562 37.1775 94.4825 37.0548 94.4046 36.9549C94.1866 36.6751 93.9435 36.4868 93.6753 36.39C93.4149 36.3031 93.1606 36.2755 92.9124 36.3073C92.682 36.3413 92.4927 36.4076 92.3446 36.5061Z" fill="url(#paint6_linear_14_60)"/>
<path d="M93.4274 47.8536L103.589 45.5828L105.358 44.7787L106.556 44.9199L107.287 48.2608L104.32 48.9238L99.4728 49.7928L99.6353 50.5352L103.341 51.2061L104.17 54.9925L103.058 55.2411L99.6028 53.8521L98.2346 55.5985L96.7436 57.7617L95.6496 58.0062L94.8615 54.4054L97.462 51.6244L97.0328 50.5522L94.1587 51.1945L93.4274 47.8536Z" fill="url(#paint7_linear_14_60)"/>
<path d="M94.0433 64.659C94.3328 63.141 94.9185 62.0305 95.8004 61.3274C96.6823 60.6243 97.9335 60.4191 99.554 60.7118C101.187 61.0068 102.279 61.6352 102.831 62.5972C103.395 63.5614 103.532 64.8025 103.242 66.3205C102.946 67.8758 102.36 68.9863 101.485 69.6521C100.621 70.3325 99.3718 70.5252 97.7389 70.2303C96.1184 69.9376 95.0238 69.3216 94.4551 68.3823C93.884 67.4554 93.7467 66.2143 94.0433 64.659ZM96.474 65.098C96.3767 65.6081 96.496 65.9965 96.832 66.2631C97.1805 66.532 97.6975 66.7284 98.3831 66.8522C99.0811 66.9783 99.6361 66.9755 100.048 66.844C100.46 66.7125 100.715 66.3916 100.812 65.8815C100.911 65.3589 100.794 64.9581 100.461 64.679C100.125 64.4124 99.6078 64.216 98.9098 64.09C98.2242 63.9661 97.6693 63.9689 97.2449 64.0981C96.8306 64.2421 96.5736 64.5754 96.474 65.098Z" fill="url(#paint8_linear_14_60)"/>
<path d="M56.0054 85.4388H66.6033H77.2013" stroke="white" stroke-width="3.5" stroke-linecap="round"/>
<path d="M78.2888 80.7202C86.5313 76.571 92.1986 68.1528 92.1986 58.414C92.1986 44.5338 80.7019 33.3485 66.6032 33.3485C52.5045 33.3485 41.0078 44.5338 41.0078 58.414C41.0078 68.1528 46.6749 76.5708 54.9176 80.7202V89.5013C54.9176 92.6508 57.5177 95.1372 60.6418 95.1372H72.5645C75.6887 95.1372 78.2888 92.6508 78.2888 89.5013V80.7202Z" stroke="#348E2B" stroke-width="3.5"/>
<defs>
<linearGradient id="paint0_linear_14_60" x1="31.8902" y1="70.1082" x2="30.7988" y2="49.5041" gradientUnits="userSpaceOnUse">
<stop stop-color="white"/>
<stop offset="1" stop-color="white"/>
</linearGradient>
<linearGradient id="paint1_linear_14_60" x1="32.0106" y1="47.8842" x2="37.6816" y2="35.0086" gradientUnits="userSpaceOnUse">
<stop stop-color="white"/>
<stop offset="1" stop-color="white"/>
</linearGradient>
<linearGradient id="paint2_linear_14_60" x1="40.073" y1="34.5924" x2="46.7547" y2="28.6926" gradientUnits="userSpaceOnUse">
<stop stop-color="white"/>
<stop offset="1" stop-color="white"/>
</linearGradient>
<linearGradient id="paint3_linear_14_60" x1="47.7588" y1="27.6578" x2="60.9993" y2="22.7261" gradientUnits="userSpaceOnUse">
<stop stop-color="white"/>
<stop offset="1" stop-color="white"/>
</linearGradient>
<linearGradient id="paint4_linear_14_60" x1="62.5453" y1="22.5897" x2="75.8616" y2="23.6581" gradientUnits="userSpaceOnUse">
<stop stop-color="white"/>
<stop offset="1" stop-color="white"/>
</linearGradient>
<linearGradient id="paint5_linear_14_60" x1="77.4566" y1="23.8034" x2="90.8429" y2="31.6537" gradientUnits="userSpaceOnUse">
<stop stop-color="white"/>
<stop offset="1" stop-color="white"/>
</linearGradient>
<linearGradient id="paint6_linear_14_60" x1="91.5728" y1="32.1797" x2="100.13" y2="43.2496" gradientUnits="userSpaceOnUse">
<stop stop-color="white"/>
<stop offset="1" stop-color="white"/>
</linearGradient>
<linearGradient id="paint7_linear_14_60" x1="100.393" y1="45.1094" x2="103.123" y2="57.3285" gradientUnits="userSpaceOnUse">
<stop stop-color="white"/>
<stop offset="1" stop-color="white"/>
</linearGradient>
<linearGradient id="paint8_linear_14_60" x1="102.552" y1="60.7707" x2="100.057" y2="74.5846" gradientUnits="userSpaceOnUse">
<stop stop-color="white"/>
<stop offset="1" stop-color="white"/>
</linearGradient>
</defs>
</svg>
